<?xml version="1.0" encoding="iso-8859-1"?>
<!-- Generator: Adobe Illustrator 19.0.0, SVG Export Plug-In . SVG Version: 6.00 Build 0)  -->
<svg version="1.1" id="Capa_1" xmlns="http://www.w3.org/2000/svg" xmlns:xlink="http://www.w3.org/1999/xlink" x="0px" y="0px"
	 viewBox="0 0 512 512" style="enable-background:new 0 0 512 512;" xml:space="preserve">
<g>
	<g>
		<g>
			<path d="M256,0C161.896,0,85.333,76.563,85.333,170.667c0,28.26,7.063,56.271,20.479,81.115L246.666,506.5
				c1.875,3.396,5.459,5.5,9.334,5.5s7.458-2.104,9.333-5.5l140.896-254.813c13.375-24.75,20.438-52.76,20.438-81.021
				C426.667,76.563,350.104,0,256,0z M387.521,241.448L256,479.292l-131.479-237.75c-11.667-21.635-17.854-46.146-17.854-70.875
				c0-82.344,67-149.333,149.333-149.333s149.333,66.99,149.333,149.333C405.333,195.396,399.146,219.906,387.521,241.448z"/>
			<path d="M256,53.333c-64.688,0-117.333,52.635-117.333,117.333S191.313,288,256,288s117.333-52.635,117.333-117.333
				S320.688,53.333,256,53.333z M256,266.667c-52.938,0-96-43.063-96-96s43.063-96,96-96s96,43.063,96,96
				S308.938,266.667,256,266.667z"/>
			<circle cx="256" cy="234.667" r="10.667"/>
			<path d="M256,96c-17.646,0-32,14.354-32,32c0,5.896,4.771,10.667,10.667,10.667c5.896,0,10.667-4.771,10.667-10.667
				c0-5.885,4.792-10.667,10.667-10.667s10.667,4.781,10.667,10.667v9.406c0,3.292-1.833,6.25-4.771,7.719
				c-10.208,5.104-16.563,15.375-16.563,26.802V192c0,5.896,4.771,10.667,10.667,10.667s10.667-4.771,10.667-10.667v-20.073
				c0-3.292,1.833-6.25,4.771-7.719C281.646,159.104,288,148.833,288,137.406V128C288,110.354,273.646,96,256,96z"/>
		</g>
	</g>
</g>
<g>
</g>
<g>
</g>
<g>
</g>
<g>
</g>
<g>
</g>
<g>
</g>
<g>
</g>
<g>
</g>
<g>
</g>
<g>
</g>
<g>
</g>
<g>
</g>
<g>
</g>
<g>
</g>
<g>
</g>
</svg>
