<svg id="Calque_1" data-name="Calque 1" xmlns="http://www.w3.org/2000/svg" viewBox="0 0 100 104"><defs><style>.cls-1{fill:#fff;}.cls-2{fill:none;}</style></defs><title>Plan de travail 1logo2</title><path class="cls-1" d="M99,42.89a25.32,25.32,0,0,1-4.91,11.46,20.78,20.78,0,0,1-9.88,7.79Q78.32,64.3,64.86,64.3V45.89q5.61,0,8.55-2.25a9.68,9.68,0,0,0,3.64-5.35q.77-3.1.84-11.93h-13V.25H13.35C6.47.25.84,6.19.84,13.45v42c0,7.26,5.63,13.2,12.51,13.2h36.9L99.48,101V57.65a13.85,13.85,0,0,0,.18-2.19V33.69A91.6,91.6,0,0,1,99,42.89Z"/><path class="cls-2" d="M77.9,26.36q-.07,8.83-.84,11.93a9.68,9.68,0,0,1-3.64,5.35q-2.94,2.25-8.55,2.25V64.3q13.46,0,19.34-2.16a20.78,20.78,0,0,0,9.88-7.79A25.32,25.32,0,0,0,99,42.89a91.6,91.6,0,0,0,.66-9.2V13.45C99.66,6.19,94,.25,87.15.25H64.86V26.36Z"/></svg>