<?xml version="1.0" encoding="iso-8859-1"?>
<!-- Generator: Adobe Illustrator 18.1.1, SVG Export Plug-In . SVG Version: 6.00 Build 0)  -->
<svg version="1.1" id="Capa_1" xmlns="http://www.w3.org/2000/svg" xmlns:xlink="http://www.w3.org/1999/xlink" x="0px" y="0px"
	 viewBox="0 0 70.902 70.902" style="enable-background:new 0 0 70.902 70.902;" xml:space="preserve">
<g>
	<g>
		<path style="fill:#010002;" d="M65.695,23.161c-0.012-0.182-0.047-0.361-0.111-0.549l-0.066-0.176
			c-0.11-0.244-0.246-0.447-0.419-0.619L43.892,0.61c-0.17-0.168-0.37-0.303-0.64-0.426c-0.044-0.018-0.087-0.033-0.159-0.057
			c-0.19-0.064-0.374-0.102-0.572-0.111L42.416,0H28.405c-5.038,0-9.137,4.098-9.137,9.137v1.229h-4.944
			c-5.037,0-9.136,4.1-9.136,9.137v42.262c0,5.037,4.099,9.137,9.136,9.137h28.175c5.037,0,9.136-4.1,9.136-9.137v-1.23h4.943
			c5.038,0,9.137-4.098,9.137-9.137V23.301L65.695,23.161z M44.507,7.145l14.061,14.063h-9.111c-2.729,0-4.949-2.221-4.949-4.951
			L44.507,7.145L44.507,7.145z M47.448,61.764c0,2.73-2.221,4.951-4.95,4.951H14.323c-2.729,0-4.95-2.221-4.95-4.951V19.502
			c0-2.73,2.221-4.951,4.95-4.951h11.918v12.07c0,5.039,4.099,9.137,9.137,9.137h12.07V61.764z M30.427,26.622v-9.11l14.062,14.061
			h-9.11C32.647,31.573,30.427,29.352,30.427,26.622z M61.528,51.397c0,2.73-2.221,4.951-4.95,4.951h-4.943V33.665l-0.02-0.137
			c-0.012-0.182-0.046-0.355-0.11-0.547l-0.072-0.189c-0.111-0.242-0.246-0.439-0.41-0.604l-21.21-21.213
			c-0.168-0.166-0.369-0.301-0.585-0.398c-0.062-0.029-0.126-0.055-0.207-0.08c-0.185-0.064-0.373-0.102-0.547-0.111v0.004
			l-0.139-0.023h-4.881V9.138c0-2.73,2.221-4.951,4.951-4.951h11.918v12.07c0,5.039,4.098,9.137,9.135,9.137h12.07V51.397z"/>
		<path style="fill:#010002;" d="M29.65,38.747c0-1.104-0.896-2-2-2s-2,0.896-2,2v7.172h-7.172c-1.104,0-2,0.896-2,2
			c0,1.105,0.896,2,2,2h7.172v7.172c0,1.105,0.896,2,2,2s2-0.895,2-2v-7.172h7.173c1.104,0,2-0.895,2-2c0-1.104-0.896-2-2-2H29.65
			V38.747z"/>
	</g>
</g>
<g>
</g>
<g>
</g>
<g>
</g>
<g>
</g>
<g>
</g>
<g>
</g>
<g>
</g>
<g>
</g>
<g>
</g>
<g>
</g>
<g>
</g>
<g>
</g>
<g>
</g>
<g>
</g>
<g>
</g>
</svg>
