<svg height="512pt" viewBox="-50 0 512 512" width="512pt" xmlns="http://www.w3.org/2000/svg"><path d="m412.660156 446.144531-35.046875-324.054687c-.863281-7.964844-7.589843-14.007813-15.605469-14.007813h-57.921874v-10.5c.003906-53.804687-43.773438-97.582031-97.582032-97.582031-53.804687 0-97.582031 43.777344-97.582031 97.582031v10.5h-57.925781c-8.015625 0-14.742188 6.039063-15.605469 14.007813l-35.046875 324.054687c-1.8125 16.761719 3.605469 33.566407 14.867188 46.113281 11.261718 12.546876 27.390624 19.742188 44.25 19.742188h294.078124c16.859376 0 32.988282-7.195312 44.253907-19.742188 11.261719-12.546874 16.679687-29.355468 14.867187-46.113281zm-272.347656-348.5625c0-36.496093 29.695312-66.191406 66.191406-66.191406 36.5 0 66.191406 29.695313 66.191406 66.191406v10.5h-132.382812zm234.117188 373.707031c-5.394532 6.007813-12.8125 9.320313-20.886719 9.320313h-294.082031c-8.074219 0-15.492188-3.3125-20.890626-9.320313-5.390624-6.011718-7.886718-13.742187-7.015624-21.769531l33.53125-310.042969h43.835937v39.996094c0 8.667969 7.027344 15.695313 15.695313 15.695313 8.667968 0 15.695312-7.027344 15.695312-15.695313v-39.996094h132.382812v39.996094c0 8.667969 7.027344 15.695313 15.695313 15.695313 8.671875 0 15.699219-7.027344 15.699219-15.695313v-39.996094h43.828125l33.53125 310.042969c.867187 8.027344-1.625 15.757813-7.019531 21.769531zm0 0"/><path d="m206.339844 284.886719h23.117187c8.667969 0 15.695313-7.027344 15.695313-15.695313 0-8.667968-7.027344-15.695312-15.695313-15.695312h-7.417969v-6.066406c0-8.667969-7.03125-15.695313-15.699218-15.695313-8.667969 0-15.695313 7.027344-15.695313 15.695313v9.578124c-13.601562 6.378907-23.113281 20.769532-23.113281 37.46875 0 22.601563 17.410156 40.984376 38.808594 40.984376 4.023437 0 7.421875 4.390624 7.421875 9.589843 0 5.203125-3.398438 9.59375-7.421875 9.59375h-23.113282c-8.667968 0-15.695312 7.027344-15.695312 15.695313 0 8.667968 7.027344 15.695312 15.695312 15.695312h7.417969v6.0625c0 8.671875 7.027344 15.699219 15.695313 15.699219 8.667968 0 15.699218-7.027344 15.699218-15.699219v-9.574218c13.597657-6.378907 23.113282-20.769532 23.113282-37.472657 0-22.597656-17.410156-40.980469-38.8125-40.980469-4.019532 0-7.417969-4.394531-7.417969-9.59375 0-5.199218 3.398437-9.589843 7.417969-9.589843zm0 0"/></svg>