<svg id="Calque_1" data-name="Calque 1" xmlns="http://www.w3.org/2000/svg" xmlns:xlink="http://www.w3.org/1999/xlink" viewBox="0 0 300 300"><defs><style>.cls-1{fill:url(#Dégradé_sans_nom_14);}.cls-2{fill:url(#Dégradé_sans_nom_14-2);}.cls-3{fill:none;}.cls-4{fill:#fff;}.cls-5{fill:url(#Dégradé_sans_nom_14-3);}</style><linearGradient id="Dégradé_sans_nom_14" x1="34.12" y1="237.7" x2="265.17" y2="63.59" gradientUnits="userSpaceOnUse"><stop offset="0" stop-color="aqua"/><stop offset="1" stop-color="#2e3192"/></linearGradient><linearGradient id="Dégradé_sans_nom_14-2" x1="55.04" y1="230.26" x2="244.96" y2="87.15" xlink:href="#Dégradé_sans_nom_14"/><linearGradient id="Dégradé_sans_nom_14-3" x1="126.6" y1="122.15" x2="173.4" y2="122.15" xlink:href="#Dégradé_sans_nom_14"/></defs><title>Plan de travail 1receive</title><circle class="cls-1" cx="149.64" cy="150.64" r="144.64"/><path class="cls-2" d="M248.62,219H51.38c-4.78,0-8.65-3.18-8.65-7.09V105.5c0-3.92,3.87-7.09,8.65-7.09H248.62c4.78,0,8.65,3.18,8.65,7.09V211.91C257.27,215.82,253.4,219,248.62,219Z"/><path class="cls-3" d="M248.62,98.41H240c4.78,0,8.65,3.1,8.65,6.92V209.08c0,3.82-3.87,6.92-8.65,6.92h8.65c4.78,0,8.65-3.1,8.65-6.92V105.32C257.27,101.5,253.4,98.41,248.62,98.41Z"/><path class="cls-3" d="M51.38,98.41H60c-4.78,0-8.65,3.1-8.65,6.92V209.08c0,3.82,3.87,6.92,8.65,6.92H51.38c-4.78,0-8.65-3.1-8.65-6.92V105.32C42.73,101.5,46.6,98.41,51.38,98.41Z"/><path class="cls-3" d="M150,127.83l-104.85,115a8.62,8.62,0,0,0,6.23,2.66H248.62a8.62,8.62,0,0,0,6.23-2.66Z"/><path class="cls-4" d="M248.62,219H51.38a12,12,0,0,1-7.48-2.45,1.11,1.11,0,0,1,0-1.81l104.85-88.2a2.18,2.18,0,0,1,2.56,0l104.85,88.2a1.11,1.11,0,0,1,0,1.81,12,12,0,0,1-7.48,2.45Zm-201-3.5a8.42,8.42,0,0,0,3.74.84H248.62a8.41,8.41,0,0,0,3.74-.84L150,129.4Z"/><path class="cls-4" d="M248.62,219H51.38C45.66,219,41,215.22,41,210.56V105.11c0-4.65,4.66-8.44,10.38-8.44H248.62c5.72,0,10.38,3.78,10.38,8.44V210.56C259,215.22,254.34,219,248.62,219ZM51.38,99.49c-3.82,0-6.92,2.52-6.92,5.62V210.56c0,3.1,3.1,5.62,6.92,5.62H248.62c3.82,0,6.92-2.52,6.92-5.62V105.11c0-3.1-3.1-5.62-6.92-5.62Z"/><path class="cls-3" d="M45.35,100.86,150,198.76l104.65-97.9a8.62,8.62,0,0,0-6-2.46H51.38a8.62,8.62,0,0,0-6,2.46Z"/><path class="cls-4" d="M150,200.49a1.72,1.72,0,0,1-1.18-.47L44.17,102.13a1.73,1.73,0,0,1,0-2.5,10.32,10.32,0,0,1,7.24-2.95H248.62a10.32,10.32,0,0,1,7.24,2.95,1.73,1.73,0,0,1,0,2.5L151.18,200A1.72,1.72,0,0,1,150,200.49ZM48,101l102,95.39L252,101a6.86,6.86,0,0,0-3.35-.87H51.38A6.87,6.87,0,0,0,48,101Z"/><path class="cls-4" d="M51.38,153.74A1.73,1.73,0,0,1,49.65,152V141.63a1.73,1.73,0,1,1,3.46,0V152A1.73,1.73,0,0,1,51.38,153.74Z"/><path class="cls-5" d="M141.23,84.51v43.31H126.6l11.7,16,11.7,16,11.7-16,11.7-16H158.77V84.51Z"/><path class="cls-4" d="M150,161.51a1.73,1.73,0,0,1-1.4-.71l-23.4-32a1.73,1.73,0,0,1,1.4-2.75h12.9V84.51a1.73,1.73,0,0,1,1.73-1.73h17.55a1.73,1.73,0,0,1,1.73,1.73V126.1h12.9a1.73,1.73,0,0,1,1.4,2.75l-23.4,32a1.72,1.72,0,0,1-1.39.71Zm-20-32,20,27.29,20-27.29H158.77a1.73,1.73,0,0,1-1.73-1.73V86.24H143v41.58a1.73,1.73,0,0,1-1.73,1.73Z"/></svg>