<?xml version="1.0" encoding="iso-8859-1"?>
<!-- Generator: Adobe Illustrator 18.0.0, SVG Export Plug-In . SVG Version: 6.00 Build 0)  -->
<!DOCTYPE svg PUBLIC "-//W3C//DTD SVG 1.1//EN" "http://www.w3.org/Graphics/SVG/1.1/DTD/svg11.dtd">
<svg version="1.1" id="Capa_1" xmlns="http://www.w3.org/2000/svg" xmlns:xlink="http://www.w3.org/1999/xlink" x="0px" y="0px"
	 viewBox="0 0 58.207 58.207" style="enable-background:new 0 0 58.207 58.207;" xml:space="preserve">
<g>
	<path d="M58.207,33.184l-0.119-0.305l-0.039-0.775h-0.426l-9.986-15H36.102v2h10.465l8.679,13H39.102v7h-20v-7H2.958l8.679-13
		h10.465v-2H10.566L0.533,32.135l-0.431,0.022v0.808L0,33.216l0.102,0.144v19.359c0,1.866,1.519,3.384,3.385,3.384h51.23
		c1.866,0,3.385-1.518,3.385-3.384V33.343L58.207,33.184z M56.102,52.719c0,0.763-0.621,1.384-1.385,1.384H3.486
		c-0.764,0-1.385-0.621-1.385-1.384V34.104h15v7h24v-7h15V52.719z"/>
	<path d="M21.809,24.396c-0.391-0.391-1.023-0.391-1.414,0s-0.391,1.023,0,1.414l7.999,7.999c0.001,0.001,0.001,0.001,0.002,0.002
		l0.706,0.706l0.706-0.706c0.001-0.001,0.001-0.001,0.002-0.002l7.999-7.999c0.391-0.391,0.391-1.023,0-1.414s-1.023-0.391-1.414,0
		l-6.293,6.293V3.104c0-0.552-0.447-1-1-1s-1,0.448-1,1v27.586L21.809,24.396z"/>
</g>
<g>
</g>
<g>
</g>
<g>
</g>
<g>
</g>
<g>
</g>
<g>
</g>
<g>
</g>
<g>
</g>
<g>
</g>
<g>
</g>
<g>
</g>
<g>
</g>
<g>
</g>
<g>
</g>
<g>
</g>
</svg>
