<?xml version="1.0" encoding="iso-8859-1"?>
<!-- Generator: Adobe Illustrator 19.0.0, SVG Export Plug-In . SVG Version: 6.00 Build 0)  -->
<svg width="30" version="1.1" id="Capa_1" xmlns="http://www.w3.org/2000/svg" xmlns:xlink="http://www.w3.org/1999/xlink" x="0px" y="0px"
	 viewBox="0 0 512.026 512.026" style="enable-background:new 0 0 512.026 512.026;" xml:space="preserve">
<g>
	<g>
		<path d="M509.141,215.48c-1.835-1.613-4.25-2.33-6.707-2.065l-43.571,5.453c-5.589,0.7-10.837-3.055-12.186-8.695
			c-4.753-19.857-12.561-38.758-23.202-56.192c-3.012-4.915-1.937-11.238,2.5-14.686l31.556-24.542
			c1.929-1.502,3.123-3.763,3.277-6.204c0.154-2.449-0.751-4.838-2.483-6.571l-48.273-48.273c-1.724-1.732-4.122-2.552-6.562-2.483
			c-2.449,0.154-4.71,1.348-6.212,3.277l-24.533,31.556c-3.456,4.446-9.762,5.521-14.694,2.509
			c-17.425-10.641-36.326-18.449-56.175-23.202c-5.658-1.357-9.395-6.605-8.695-12.194l5.444-43.571
			c0.299-2.423-0.452-4.873-2.074-6.707s-3.951-2.884-6.4-2.884h-68.267c-2.449,0-4.787,1.05-6.4,2.884
			c-1.621,1.843-2.381,4.284-2.082,6.707l5.453,43.571c0.7,5.598-3.038,10.837-8.687,12.194
			c-19.849,4.753-38.758,12.561-56.183,23.202c-4.915,2.995-11.238,1.937-14.686-2.509l-24.542-31.556
			c-1.51-1.937-3.763-3.123-6.212-3.277c-2.432-0.162-4.83,0.751-6.562,2.483l-48.273,48.273c-1.732,1.741-2.637,4.122-2.483,6.571
			c0.154,2.449,1.34,4.702,3.277,6.204l31.556,24.542c4.429,3.456,5.513,9.771,2.5,14.686
			c-10.641,17.434-18.449,36.335-23.202,56.192c-1.348,5.658-6.588,9.429-12.186,8.695l-43.58-5.453
			c-2.449-0.265-4.872,0.452-6.707,2.065C1.05,217.101,0,219.43,0,221.879v68.267c0,2.449,1.05,4.779,2.884,6.4
			c1.835,1.613,4.258,2.364,6.707,2.065l43.571-5.453c5.615-0.742,10.846,3.046,12.194,8.695
			c4.753,19.857,12.561,38.758,23.202,56.192c3.012,4.915,1.937,11.238-2.5,14.686l-31.556,24.542
			c-1.929,1.502-3.123,3.755-3.277,6.204c-0.154,2.449,0.751,4.838,2.483,6.571l48.282,48.273c1.732,1.732,4.139,2.637,6.562,2.483
			c2.449-0.154,4.71-1.34,6.212-3.277l24.542-31.556c3.456-4.437,9.771-5.504,14.694-2.509
			c17.425,10.641,36.326,18.449,56.175,23.202c5.658,1.357,9.395,6.605,8.695,12.194l-5.453,43.571
			c-0.299,2.423,0.452,4.864,2.074,6.707c1.621,1.835,3.951,2.884,6.4,2.884h68.267c2.441,0,4.779-1.05,6.391-2.884
			c1.621-1.835,2.381-4.284,2.074-6.707l-5.444-43.571c-0.7-5.598,3.038-10.837,8.687-12.194
			c19.849-4.753,38.758-12.561,56.183-23.202c4.924-2.995,11.238-1.937,14.686,2.509l24.542,31.556
			c1.51,1.929,3.763,3.123,6.212,3.277c2.432,0.111,4.83-0.751,6.562-2.483l48.273-48.273c1.732-1.741,2.637-4.13,2.483-6.571
			c-0.145-2.449-1.34-4.702-3.277-6.204l-31.556-24.542c-4.429-3.456-5.513-9.771-2.5-14.686
			c10.641-17.434,18.449-36.335,23.202-56.192c1.348-5.666,6.545-9.455,12.186-8.695l43.571,5.453
			c2.458,0.299,4.873-0.452,6.707-2.065c1.835-1.621,2.884-3.951,2.884-6.4V221.88C512.026,219.43,510.976,217.101,509.141,215.48z
			 M494.95,280.487l-33.988-4.25c-14.199-1.809-27.52,7.535-30.899,21.658c-4.335,18.116-11.452,35.362-21.163,51.26
			c-7.535,12.339-4.702,28.271,6.596,37.052l23.919,18.611l-34.603,34.611l-18.603-23.936c-8.789-11.281-24.713-14.123-37.052-6.588
			c-15.906,9.711-33.152,16.828-51.268,21.163c-14.114,3.388-23.424,16.674-21.649,30.908l4.25,33.98h-48.93l4.267-33.98
			c1.775-14.234-7.535-27.52-21.658-30.908c-18.108-4.326-35.354-11.443-51.26-21.163c-12.331-7.535-28.271-4.693-37.052,6.588
			l-18.611,23.936l-34.603-34.611l23.927-18.611c11.298-8.789,14.131-24.713,6.596-37.052c-9.702-15.898-16.828-33.143-21.163-51.26
			c-3.379-14.123-16.683-23.475-30.908-21.658l-33.988,4.25v-48.93l33.988,4.25c14.225,1.843,27.52-7.535,30.899-21.658
			c4.335-18.116,11.452-35.362,21.163-51.26c7.535-12.339,4.702-28.271-6.596-37.052l-23.927-18.611l34.603-34.611L125.85,96.55
			c8.789,11.281,24.721,14.123,37.052,6.588c15.906-9.711,33.152-16.828,51.268-21.163c14.114-3.388,23.424-16.674,21.649-30.908
			l-4.25-33.98h48.93l-4.25,33.98c-1.775,14.234,7.535,27.52,21.658,30.908c18.108,4.326,35.354,11.443,51.26,21.163
			c12.339,7.535,28.262,4.693,37.052-6.588l18.603-23.936l34.603,34.611l-23.919,18.611c-11.298,8.789-14.131,24.713-6.596,37.052
			c9.702,15.898,16.828,33.143,21.163,51.26c3.379,14.123,16.742,23.492,30.899,21.658l33.98-4.25V280.487z"/>
	</g>
</g>
<g>
	<g>
		<path d="M256.026,136.555c-65.877,0-119.467,53.589-119.467,119.467s53.589,119.467,119.467,119.467
			s119.467-53.589,119.467-119.467S321.903,136.555,256.026,136.555z M256.026,358.421c-56.465,0-102.4-45.935-102.4-102.4
			s45.935-102.4,102.4-102.4c56.456,0,102.4,45.935,102.4,102.4S312.491,358.421,256.026,358.421z"/>
	</g>
</g>
<g>
	<g>
		<path d="M256.026,179.221c-23.526,0-42.667,19.14-42.667,42.667c0,23.526,19.14,42.667,42.667,42.667
			c23.526,0,42.667-19.14,42.667-42.667C298.692,198.362,279.552,179.221,256.026,179.221z M256.026,247.488
			c-14.114,0-25.6-11.486-25.6-25.6s11.486-25.6,25.6-25.6c14.114,0,25.6,11.486,25.6,25.6S270.14,247.488,256.026,247.488z"/>
	</g>
</g>
<g>
	<g>
		<path d="M290.68,290.146h-69.316c-18.526,0-33.604,14.114-33.604,31.462v27.793c0,2.91,1.476,5.615,3.925,7.185
			c19.294,12.365,41.54,18.901,64.341,18.901c22.801,0,45.047-6.536,64.341-18.901c2.449-1.57,3.925-4.275,3.925-7.185v-27.793
			C324.292,304.252,309.214,290.146,290.68,290.146z M307.226,344.614c-31.189,18.099-71.211,18.099-102.4,0v-22.997
			c0-7.936,7.415-14.396,16.538-14.396h69.316c9.122,0,16.546,6.46,16.546,14.396V344.614z"/>
	</g>
</g>
<g>
</g>
<g>
</g>
<g>
</g>
<g>
</g>
<g>
</g>
<g>
</g>
<g>
</g>
<g>
</g>
<g>
</g>
<g>
</g>
<g>
</g>
<g>
</g>
<g>
</g>
<g>
</g>
<g>
</g>
</svg>
