<?xml version="1.0" encoding="iso-8859-1"?>
<!-- Generator: Adobe Illustrator 19.0.0, SVG Export Plug-In . SVG Version: 6.00 Build 0)  -->
<svg width="200" version="1.1" id="Capa_1" xmlns="http://www.w3.org/2000/svg" xmlns:xlink="http://www.w3.org/1999/xlink" x="0px" y="0px"
	 viewBox="0 0 512 512" style="enable-background:new 0 0 512 512;" xml:space="preserve">
<polygon style="fill:#FEC9A3;" points="388.407,370.739 450.197,308.95 335.444,194.197 256,211.851 150.075,317.777 
	176.556,344.258 141.247,379.567 253.44,491.759 299.43,446.476 309.228,455.568 "/>
<path style="fill:#F7BB8F;" d="M256,211.851l-79.444-17.654L61.803,308.95l70.617,70.617l135.673,121.55
	c8.086,8.377,21.159,9.401,30.454,2.383c9.436-7.635,10.893-21.476,3.257-30.913c-0.494-0.609-1.024-1.192-1.58-1.748
	c8.633,8.633,22.615,8.633,31.248,0s8.633-22.615,0-31.248l0,0c8.483,8.757,22.447,8.977,31.204,0.494
	c8.757-8.483,8.977-22.447,0.494-31.204c-0.177-0.185-0.362-0.362-0.538-0.538c8.536,8.633,22.456,8.704,31.08,0.168
	c0.591-0.583,1.148-1.201,1.668-1.845c7.044-9.251,6.02-22.324-2.383-30.365l-21.009-21.009l-54.199-55.17l-17.654-79.444
	L256,211.851z"/>
<polygon style="fill:#87CED9;" points="344.271,132.407 511.987,300.122 511.987,0 476.678,0 "/>
<polygon style="fill:#6CBBC7;" points="511.987,129.494 426.629,214.764 511.987,300.122 "/>
<path style="fill:#FEC9A3;" d="M284.423,450.184c-7.68-9.463-21.582-10.902-31.045-3.213c-0.591,0.486-1.165,0.997-1.704,1.536
	c9.41-7.75,10.76-21.653,3.01-31.063c-7.75-9.41-21.653-10.76-31.063-3.01c-1.068,0.874-2.048,1.854-2.931,2.913
	c8.121-9.083,7.344-23.039-1.748-31.16c-8.377-7.485-21.035-7.485-29.412,0c8.606-8.633,8.58-22.606-0.053-31.213
	c-0.547-0.547-1.121-1.059-1.712-1.536c-9.251-7.044-22.324-6.02-30.365,2.383l-20.92,21.009c-13.753,13.779-13.753,36.094,0,49.873
	l74.854,74.942c13.779,13.797,36.138,13.806,49.935,0.026c0.009-0.009,0.018-0.018,0.026-0.026l20.92-21.009
	C290.576,472.516,291.52,459.426,284.423,450.184z"/>
<rect x="385.503" y="152.785" transform="matrix(-0.7071 0.7071 -0.7071 -0.7071 866.1356 109.0457)" style="fill:#DBDBDB;" width="49.961" height="162.241"/>
<polygon style="fill:#4398D1;" points="167.729,132.407 0.013,300.122 0.013,0 35.322,0 "/>
<g>
	
		<rect x="20.427" y="208.908" transform="matrix(-0.7071 0.7071 -0.7071 -0.7071 338.7364 327.4678)" style="fill:#DBDBDB;" width="162.241" height="49.961"/>
	<path style="fill:#DBDBDB;" d="M114.766,459.011c-34.126,0-61.79-27.664-61.79-61.79H70.63c0,24.372,19.764,44.136,44.136,44.136
		V459.011z"/>
	<path style="fill:#DBDBDB;" d="M114.766,503.146c-58.497,0-105.926-47.428-105.926-105.926h17.654
		c0,48.752,39.519,88.271,88.271,88.271V503.146z"/>
	<path style="fill:#DBDBDB;" d="M388.407,459.011v-17.654c24.372,0,44.136-19.764,44.136-44.136h17.654
		C450.197,431.347,422.533,459.011,388.407,459.011z"/>
	<path style="fill:#DBDBDB;" d="M388.407,503.146v-17.654c48.752,0,88.271-39.519,88.271-88.271h17.654
		C494.333,455.718,446.904,503.146,388.407,503.146z"/>
	<circle style="fill:#DBDBDB;" cx="44.131" cy="185.37" r="17.654"/>
</g>
<path style="fill:#FEC9A3;" d="M388.407,247.16l-52.963-52.963L256,211.851L150.074,317.777
	c18.89,20.108,50.509,21.097,70.617,2.207L256,282.468c20.479,21.565,52.38,27.761,79.444,15.447l8.827-6.62L388.407,247.16z"/>
<circle style="fill:#DBDBDB;" cx="467.834" cy="185.37" r="17.654"/>
<g>
</g>
<g>
</g>
<g>
</g>
<g>
</g>
<g>
</g>
<g>
</g>
<g>
</g>
<g>
</g>
<g>
</g>
<g>
</g>
<g>
</g>
<g>
</g>
<g>
</g>
<g>
</g>
<g>
</g>
</svg>
