<svg id="Calque_1" data-name="Calque 1" xmlns="http://www.w3.org/2000/svg" xmlns:xlink="http://www.w3.org/1999/xlink" viewBox="0 0 300 300"><defs><style>.cls-1{fill:url(#Dégradé_sans_nom_8);}</style><linearGradient id="Dégradé_sans_nom_8" x1="51.16" y1="239.99" x2="248.84" y2="62.01" gradientUnits="userSpaceOnUse"><stop offset="0" stop-color="aqua"/><stop offset="1" stop-color="#2e3192"/></linearGradient></defs><title>Plan de travail 1fill</title><g id="Rewind_copy_6" data-name="Rewind copy 6"><path class="cls-1" d="M167.66,108.31l28.23,16.75,8.27-15.4L175.94,92.9ZM150,18A133,133,0,1,0,283,151,133,133,0,0,0,150,18Zm61.22,95.85L183,165.66l-2,3.63-4.07,7.26c-1.33,2.36-2.82,5.56-5.52,6.93L141,204.15a8,8,0,0,1-3.43.83v0H91.81v-8.31h37.46l2.19-36.93c-.19-3.08,1.73-6,3.05-8.4l4.07-7.26,30.3-55.44A8,8,0,0,1,180,85.63l28.23,16.76A8.53,8.53,0,0,1,211.22,113.85Zm-53.35,12.7-8.15,14.52-8.15,14.52a32.44,32.44,0,0,0-3.4,14.14l-2.81,20a6.28,6.28,0,0,0,3,5,5.92,5.92,0,0,0,5.74.19l15.46-12.51a31.49,31.49,0,0,0,10.19-10.11l4.07-7.25,2-3.63,10.19-18.15L192,132.24,163.8,115.48Z"/></g></svg>