<svg id="Calque_1" data-name="Calque 1" xmlns="http://www.w3.org/2000/svg" xmlns:xlink="http://www.w3.org/1999/xlink" viewBox="0 0 300 300"><defs><style>.cls-1{fill:url(#Dégradé_sans_nom_14);}.cls-2{fill:none;stroke:#fff;stroke-miterlimit:10;stroke-width:5px;}</style><linearGradient id="Dégradé_sans_nom_14" x1="35.12" y1="236.7" x2="266.17" y2="62.59" gradientUnits="userSpaceOnUse"><stop offset="0" stop-color="aqua"/><stop offset="1" stop-color="#2e3192"/></linearGradient></defs><title>Plan de travail 1growth</title><circle class="cls-1" cx="150.64" cy="149.64" r="144.64"/><path class="cls-2" d="M71.43,185.93a16.79,16.79,0,0,1-5.22,3.31V215A7.19,7.19,0,0,0,73.63,222H90.34A7.19,7.19,0,0,0,97.76,215V162.39a7.53,7.53,0,0,0-.08-1Z"/><path class="cls-2" d="M244.51,85.42H244L210.19,86.9c-1.75.08-3.46.15-4.44,2.13s.12,3,1.35,4.19c3.46,3.24,6.89,6.51,10.39,9.67l-3.83,3.58-31.18,29.14-2.77,2.59-6.81,6.36-26.82,25.06-1.55-1.45-32.08-30-6.81-6.36-1.83-1.71a7.61,7.61,0,0,0-5.26-2,7.79,7.79,0,0,0-5.26,2l-1.83,1.71L52.51,168.22a6.65,6.65,0,0,0,0,9.83l1.83,1.71a7.61,7.61,0,0,0,5.26,2,7.79,7.79,0,0,0,5.26-2L98.54,148.3l1.55,1.45,32.08,30,6.81,6.36,1.83,1.71a7.61,7.61,0,0,0,5.26,2,7.79,7.79,0,0,0,5.26-2l1.83-1.71,32.08-30,6.81-6.36,2.77-2.59L226,118l3.79-3.54L240,123.92c.94.88,1.88,1.83,3.22,1.83a3.85,3.85,0,0,0,1.67-.46c2-1,2.49-2.7,2.57-4.57.49-10.28,1-20.53,1.55-30.81C249.11,86.83,247.73,85.42,244.51,85.42Z"/><path class="cls-2" d="M127.8,129.79a37.32,37.32,0,0,0,10.11,2.7c2.73.42,2.81.53,2.85,3.16,0,1.22,0,2.4,0,3.62a2.22,2.22,0,0,0,2.45,2.44c1.92,0,3.79,0,5.71,0a2.12,2.12,0,0,0,2.36-2.29c0-1.64.08-3.28,0-5s.69-2.51,2.41-3a19.68,19.68,0,0,0,9.95-5.94c7.22-8.19,4.44-20.19-5.79-25.48a94.7,94.7,0,0,0-10-4.23A21.69,21.69,0,0,1,142.44,93c-3.26-2.44-2.65-6.36,1.18-7.92a11.06,11.06,0,0,1,3.38-.65,27.2,27.2,0,0,1,12.64,2.32c2,.91,2.65.61,3.34-1.33s1.3-4.11,2-6.21c.45-1.37-.08-2.32-1.51-2.89a32.35,32.35,0,0,0-7.95-2.21c-3.63-.53-3.63-.53-3.63-3.92,0-4.8,0-4.8-5.14-4.8h-2.24c-2.41.08-2.81.46-2.85,2.7,0,1,0,2,0,3,0,3,0,3-3.1,4-7.42,2.51-12,7.24-12.51,14.82-.45,6.7,3.3,11.24,9.17,14.51,3.63,2,7.66,3.24,11.5,4.8a18.3,18.3,0,0,1,4.2,2.29c3.71,2.86,3,7.62-1.39,9.41a15.15,15.15,0,0,1-7.38.91,34.07,34.07,0,0,1-11.25-3.16c-2.08-1-2.69-.76-3.38,1.37-.61,1.83-1.14,3.66-1.67,5.48C125,128,125.28,128.65,127.8,129.79Z"/><path class="cls-2" d="M132.29,192.33,125.48,186l-14.67-13.71a6.56,6.56,0,0,0-1,3.5v39.31a7.19,7.19,0,0,0,7.42,6.93h16.71a7.19,7.19,0,0,0,7.42-6.93V198a17.07,17.07,0,0,1-7.22-4Z"/><path class="cls-2" d="M159.8,192.33,158,194a16.64,16.64,0,0,1-4.61,3v18a7.19,7.19,0,0,0,7.42,6.93h16.71a7.19,7.19,0,0,0,7.42-6.93V175.76a6.63,6.63,0,0,0-2.16-4.88Z"/><path class="cls-2" d="M201.46,153.37,198.69,156l-1.79,1.68V215a7.19,7.19,0,0,0,7.42,6.93H221a7.19,7.19,0,0,0,7.42-6.93V129.14a6.92,6.92,0,0,0-.08-.91Z"/></svg>