<svg id="Calque_1" data-name="Calque 1" xmlns="http://www.w3.org/2000/svg" xmlns:xlink="http://www.w3.org/1999/xlink" viewBox="0 0 300 300"><defs><style>.cls-1{fill:url(#Dégradé_sans_nom_14);}.cls-2{fill:#fffffc;}.cls-3{fill:#dededf;}</style><linearGradient id="Dégradé_sans_nom_14" x1="48.13" y1="226.89" x2="253.16" y2="72.39" gradientUnits="userSpaceOnUse"><stop offset="0" stop-color="aqua"/><stop offset="1" stop-color="#2e3192"/></linearGradient></defs><title>Plan de travail 1join</title><circle class="cls-1" cx="150.64" cy="149.64" r="128.36"/><path class="cls-2" d="M146.54,214.08l-21.19,21.19a42.54,42.54,0,0,1-60.16-60.16l21.19-21.19a42.54,42.54,0,0,1,60.16,60.16ZM79.89,189.64a21.75,21.75,0,0,0,30.76,30.76l21.19-21.19a21.75,21.75,0,0,0-30.76-30.76Z"/><path class="cls-2" d="M236.1,124.35l-21.19,21.19a42.54,42.54,0,1,1-60.16-60.16l21.19-21.19a42.54,42.54,0,0,1,60.16,60.16ZM169.62,99.91a21.75,21.75,0,0,0,30.76,30.76l21.19-21.19a21.75,21.75,0,1,0-30.76-30.76Z"/><path class="cls-3" d="M185.68,129.48l-55.21,55.21a10.39,10.39,0,0,1-14.7-14.7l55-55.38a10.32,10.32,0,0,1,14.7,0A10.68,10.68,0,0,1,185.68,129.48Z"/></svg>