<?xml version="1.0" encoding="iso-8859-1"?>
<!-- Generator: Adobe Illustrator 16.0.0, SVG Export Plug-In . SVG Version: 6.00 Build 0)  -->
<!DOCTYPE svg PUBLIC "-//W3C//DTD SVG 1.1//EN" "http://www.w3.org/Graphics/SVG/1.1/DTD/svg11.dtd">
<svg version="1.1" id="Capa_1" xmlns="http://www.w3.org/2000/svg" xmlns:xlink="http://www.w3.org/1999/xlink" x="0px" y="0px"
	 width="441.104px" height="441.105px" viewBox="0 0 441.104 441.105" style="enable-background:new 0 0 441.104 441.105;"
	 xml:space="preserve">
<g>
	<path d="M309.379,46.08H131.725C59.092,46.08,0,105.172,0,177.806c0,72.633,59.092,131.726,131.725,131.726h62.956v70.157
		c0,6.227,3.717,11.787,9.469,14.17c1.87,0.771,3.847,1.166,5.862,1.166c4.099,0,7.937-1.582,10.808-4.457l81.601-81.036h6.959
		c72.634,0,131.725-59.092,131.725-131.726C441.104,105.172,382.013,46.08,309.379,46.08z M194.05,230.167
		c-10.755,13.694-26.845,20.934-46.529,20.934c-7.818,0-14.155-6.336-14.155-14.153s6.337-14.155,14.155-14.155
		c11.138,0,18.846-3.212,24.261-10.108c5.248-6.687,7.92-16.295,9.033-26.545h-35.311c-5.862,0-10.616-4.754-10.616-10.617v-45.646
		c0-5.865,4.754-10.617,10.616-10.617h45.648c6.529,0,12.473,5.721,13.752,10.963c0.16,0.658,3.947,16.336,4.767,35.868
		C210.842,193.913,205.585,215.473,194.05,230.167z M291.955,230.167c-10.752,13.694-26.842,20.934-46.529,20.934
		c-7.818,0-14.154-6.336-14.154-14.153s6.336-14.155,14.154-14.155c11.139,0,18.85-3.212,24.262-10.108
		c5.25-6.687,7.92-16.295,9.032-26.545h-35.31c-5.863,0-10.614-4.754-10.614-10.617v-45.646c0-5.865,4.751-10.617,10.614-10.617
		h45.649c6.527,0,12.471,5.721,13.751,10.963c0.161,0.658,3.945,16.336,4.769,35.868
		C308.748,193.913,303.493,215.473,291.955,230.167z"/>
</g>
<g>
</g>
<g>
</g>
<g>
</g>
<g>
</g>
<g>
</g>
<g>
</g>
<g>
</g>
<g>
</g>
<g>
</g>
<g>
</g>
<g>
</g>
<g>
</g>
<g>
</g>
<g>
</g>
<g>
</g>
</svg>
