<?xml version="1.0" encoding="iso-8859-1"?>
<!-- Generator: Adobe Illustrator 16.0.0, SVG Export Plug-In . SVG Version: 6.00 Build 0)  -->
<!DOCTYPE svg PUBLIC "-//W3C//DTD SVG 1.1//EN" "http://www.w3.org/Graphics/SVG/1.1/DTD/svg11.dtd">
<svg version="1.1" id="Capa_1" xmlns="http://www.w3.org/2000/svg" xmlns:xlink="http://www.w3.org/1999/xlink" x="0px" y="0px"
	 width="560px" height="560px" viewBox="0 0 560 560" style="enable-background:new 0 0 560 560;" xml:space="preserve">
<g>
	<path d="M530,147.201H72.8v312.1C72.8,474,61.2,485.6,46.5,485.6H26.3C11.6,485.6,0,474,0,459.301v-358.6C0,86,11.6,74.4,26.3,74.4
		H529.4c14.699,0,26.3,11.6,26.3,26.3v20.2C556.3,135.601,544.7,147.201,530,147.201z M467,281.801h-11.6l0,0V338.1H468.3
		c9.2,0,16.5-2.398,21.4-7.299c4.899-4.9,7.3-11.6,7.3-20.801c0-9.199-2.4-15.9-7.3-20.799C485.3,284.301,478,281.801,467,281.801z
		 M294.4,279.4c-8,0-14.101,3.1-19.601,8.6s-8,12.9-8,20.801s3.1,15.299,8,20.799c5.5,5.5,11.601,8.602,19.601,8.602
		s14.1-3.102,19.6-8.602s8-12.898,8-20.799S318.9,293.5,314,288C308.5,282.4,302.3,279.4,294.4,279.4z M560,237.201v145
		c0,24.5-19.6,44.1-44.1,44.1H162.8c-24.5,0-44.1-19.6-44.1-44.1v-145c0-24.5,19.6-44.1,44.1-44.1H515.9
		C540.4,193.101,560,212.701,560,237.201z M233.2,329c0-8.6-2.4-14.699-7.3-19c-4.9-4.299-11.6-7.299-20.2-9.799
		c-8.6-2.4-14.1-4.301-16.5-5.5c-2.4-1.801-3.7-3.701-3.7-6.102c0-2.398,0.6-4.898,3.1-6.1c1.8-1.799,4.9-2.399,8-2.399
		c8.6,0,17.1,3.101,25.1,9.2l10.4-15.3c-4.3-3.7-9.8-6.7-15.9-9.2c-6.1-1.8-12.2-3.1-18.4-3.1c-9.2,0-17.1,2.4-23.3,7.3
		c-6.1,4.9-9.2,11.6-9.2,20.201c0,8.6,2.4,15.299,7.3,19c4.9,3.699,12.9,7.299,23.9,9.799c6.7,1.801,11.6,3.1,13.5,4.9
		c2.4,1.801,3.1,3.699,3.1,6.699c0,3.102-1.2,4.9-3.1,6.701c-1.8,1.799-4.9,2.4-8.6,2.4c-8.6,0-17.7-4.301-27.5-12.9L161.7,341.1
		c11.6,11,25.1,15.9,39.2,15.9c10.4,0,18.4-2.4,24.5-8C230.1,344.301,233.2,337.5,233.2,329z M342.7,309.4
		c0-13.5-4.3-25.1-14.101-34.3c-9.199-9.2-20.8-13.5-34.3-13.5s-25.1,4.3-34.3,13.5s-14.1,20.8-14.1,34.3s4.9,24.5,14.1,33.699
		c9.2,9.201,20.8,14.102,34.3,14.102s25.101-4.9,34.3-14.102C338.4,333.9,342.7,322.801,342.7,309.4z M419.8,337.5h-39.2v-74.1
		h-20.8v92.4h60V337.5L419.8,337.5z M519,309.4c0-14.1-4.3-25.699-13.5-33.7c-8.6-8-21.4-12.2-37.9-12.2H435.2v92.4H467
		c17.7,0,30.6-4.301,39.2-12.9C514.7,335.1,519,324.1,519,309.4z"/>
</g>
<g>
</g>
<g>
</g>
<g>
</g>
<g>
</g>
<g>
</g>
<g>
</g>
<g>
</g>
<g>
</g>
<g>
</g>
<g>
</g>
<g>
</g>
<g>
</g>
<g>
</g>
<g>
</g>
<g>
</g>
</svg>
